<?xml version="1.0" encoding="UTF-8" standalone="no"?>
<!-- Created with Inkscape (http://www.inkscape.org/) -->

<svg
   width="188.50275mm"
   height="158.51559mm"
   viewBox="0 0 188.50275 158.51559"
   version="1.1"
   id="svg1"
   xmlns="http://www.w3.org/2000/svg"
   xmlns:svg="http://www.w3.org/2000/svg">
  <defs
     id="defs1" />
  <g
     id="layer1"
     transform="translate(-21.759923,-49.186056)">
    <path
       id="rect108-5"
       style="display:inline;fill:#ffffff;fill-opacity:1;stroke:#fcffff;stroke-width:1.05833;stroke-linecap:square;stroke-linejoin:miter;stroke-dasharray:none;stroke-opacity:1"
       d="m 22.551873,49.715223 v 2.00996 9.04481 2.00995 11.05477 h 2.00996 v -2.00996 -4.5224 -4.52241 h 7.034851 v -2.00995 h -7.034851 v -9.04481 h 10.049788 v -2.00996 H 24.561833 Z" />
    <path
       id="rect108-7"
       style="display:inline;fill:#ffffff;fill-opacity:1;stroke:#fcffff;stroke-width:1.05833;stroke-linecap:square;stroke-linejoin:miter;stroke-dasharray:none;stroke-opacity:1"
       d="m 54.877443,49.715223 v 2.00996 9.04481 2.00995 11.05477 h 2.00996 10.049789 v -2.00996 H 56.887403 v -6.16287 -2.88194 -2.00995 -9.04481 -2.00996 z" />
    <path
       id="rect108-7-2"
       style="display:inline;fill:#ffffff;fill-opacity:1;stroke:#fcffff;stroke-width:1.05833;stroke-linecap:square;stroke-linejoin:miter;stroke-dasharray:none;stroke-opacity:1"
       d="m 75.010084,150.89367 v 2.00996 9.04481 2.00996 11.05476 h 2.009958 10.049791 v -2.00995 H 77.020042 v -6.16288 -2.88193 -2.00996 -9.04481 -2.00996 z" />
    <path
       id="rect108-7-9"
       style="display:inline;fill:#ffffff;fill-opacity:1;stroke:#fcffff;stroke-width:1.05833;stroke-linecap:square;stroke-linejoin:miter;stroke-dasharray:none;stroke-opacity:1"
       d="m 89.826287,150.89367 v 2.00996 9.04481 2.00996 11.05476 h 2.009959 10.049784 v -2.00995 H 91.836246 v -6.16288 -2.88193 -2.00996 -9.04481 -2.00996 z" />
    <path
       id="rect108"
       style="display:inline;fill:#ffffff;fill-opacity:1;stroke:#fcffff;stroke-width:1.05833;stroke-linecap:square;stroke-linejoin:miter;stroke-dasharray:none;stroke-opacity:1"
       d="m 104.64249,150.89367 v 2.00996 9.04481 2.00996 11.05476 h 2.00996 10.04978 v -2.00995 h -10.04978 v -9.04481 h 7.03485 v -2.00996 h -7.03485 v -9.04481 h 10.04978 v -2.00996 h -10.04978 z" />
    <path
       id="rect108-9"
       style="display:inline;fill:#ffffff;fill-opacity:1;stroke:#fcffff;stroke-width:1.05833;stroke-linecap:square;stroke-linejoin:miter;stroke-dasharray:none;stroke-opacity:1"
       d="m 197.41106,150.89367 v 2.00996 9.04481 2.00996 11.05476 h 2.00997 10.0498 v -2.00995 h -10.0498 v -9.04481 h 7.03487 v -2.00996 h -7.03487 v -9.04481 h 10.0498 v -2.00996 h -10.0498 z" />
    <path
       id="rect108-9-1"
       style="display:inline;fill:#ffffff;fill-opacity:1;stroke:#fcffff;stroke-width:1.05833;stroke-linecap:square;stroke-linejoin:miter;stroke-dasharray:none;stroke-opacity:1"
       d="m 22.551873,183.05298 v 2.00996 9.04482 2.00995 11.05477 h 2.00996 10.049788 v -2.00996 H 24.561833 v -9.04481 h 7.034857 v -2.00995 h -7.034857 v -9.04482 h 10.049788 v -2.00996 H 24.561833 Z" />
    <path
       id="path22"
       style="display:inline;fill:#ffffff;fill-opacity:1;stroke:#fcffff;stroke-width:1.05833;stroke-linecap:square;stroke-linejoin:miter;stroke-dasharray:none;stroke-opacity:1"
       d="m 87.202996,49.715223 v 16.07966 a 8.039832,8.039832 0 0 0 8.039833,8.03983 8.039832,8.039832 0 0 0 8.039831,-8.03983 v -16.07966 h -2.00996 v 16.07966 a 6.0298743,6.0298743 0 0 1 -6.029871,6.02987 6.0298743,6.0298743 0 0 1 -6.029874,-6.02987 v -16.07966 z" />
    <path
       id="path22-9"
       style="display:inline;fill:#ffffff;fill-opacity:1;stroke:#fcffff;stroke-width:1.05833;stroke-linecap:square;stroke-linejoin:miter;stroke-dasharray:none;stroke-opacity:1"
       d="m 160.06056,49.715223 v 16.07966 a 8.039832,8.039832 0 0 0 8.03983,8.03983 8.039832,8.039832 0 0 0 8.03983,-8.03983 v -16.07966 h -2.00996 v 16.07966 a 6.0298743,6.0298743 0 0 1 -6.02987,6.02987 6.0298743,6.0298743 0 0 1 -6.02988,-6.02987 v -16.07966 z" />
    <path
       id="path7-6"
       style="display:inline;fill:#ffffff;fill-opacity:1;stroke:#fcffff;stroke-width:1.05833;stroke-linecap:square;stroke-linejoin:miter;stroke-dasharray:none;stroke-opacity:1"
       d="m 202.93839,49.715223 a 6.5323637,6.5323637 0 0 0 -6.53236,6.53236 6.5323637,6.5323637 0 0 0 6.53236,6.53236 4.5224057,4.5224057 0 0 1 4.5224,4.52241 4.5224057,4.5224057 0 0 1 -4.5224,4.5224 4.5224057,4.5224057 0 0 1 -4.52241,-4.5224 h -2.00995 a 6.5323637,6.5323637 0 0 0 6.53236,6.53236 6.5323637,6.5323637 0 0 0 6.53236,-6.53236 6.5323637,6.5323637 0 0 0 -6.53236,-6.53236 4.5224057,4.5224057 0 0 1 -4.52241,-4.52241 4.5224057,4.5224057 0 0 1 4.52241,-4.5224 4.5224057,4.5224057 0 0 1 4.5224,4.5224 h 2.00996 a 6.5323637,6.5323637 0 0 0 -6.53236,-6.53236 z" />
    <path
       id="path7-6-7"
       style="display:inline;fill:#ffffff;fill-opacity:1;stroke:#fcffff;stroke-width:1.05833;stroke-linecap:square;stroke-linejoin:miter;stroke-dasharray:none;stroke-opacity:1"
       d="m 45.163903,183.05298 a 6.5323637,6.5323637 0 0 0 -6.532362,6.53237 6.5323637,6.5323637 0 0 0 6.532362,6.53236 4.5224057,4.5224057 0 0 1 4.522402,4.52241 4.5224057,4.5224057 0 0 1 -4.522402,4.5224 4.5224057,4.5224057 0 0 1 -4.522408,-4.5224 h -2.009954 a 6.5323637,6.5323637 0 0 0 6.532362,6.53236 6.5323637,6.5323637 0 0 0 6.532362,-6.53236 6.5323637,6.5323637 0 0 0 -6.532362,-6.53236 4.5224057,4.5224057 0 0 1 -4.522408,-4.52241 4.5224057,4.5224057 0 0 1 4.522408,-4.52241 4.5224057,4.5224057 0 0 1 4.522402,4.52241 h 2.00996 a 6.5323637,6.5323637 0 0 0 -6.532362,-6.53237 z" />
    <path
       id="rect25"
       style="display:inline;fill:#ffffff;fill-opacity:1;stroke:#fcffff;stroke-width:1.05833;stroke-linecap:square;stroke-linejoin:miter;stroke-dasharray:none;stroke-opacity:1"
       d="m 123.54846,49.715223 2.7849,4.82358 4.1778,7.23616 -4.51683,7.82337 -2.44587,4.23638 h 2.32087 l 1.86565,-3.2314 3.93662,-6.81839 3.93661,6.81839 1.86565,3.2314 h 2.32087 l -2.44586,-4.23637 -4.51684,-7.82338 4.17781,-7.23616 2.78489,-4.82358 h -2.32087 l -2.20467,3.8186 -3.59759,6.23118 -3.59759,-6.23118 -2.20468,-3.8186 z" />
    <path
       id="path104"
       style="display:inline;fill:#ffffff;fill-opacity:1;stroke:#fcffff;stroke-width:1.05833;stroke-linecap:square;stroke-linejoin:miter;stroke-dasharray:none;stroke-opacity:1"
       d="M 34.611621,83.441443 A 12.059748,12.059748 0 0 0 22.551873,95.501195 12.059748,12.059748 0 0 0 34.611621,107.56093 12.059748,12.059748 0 0 0 45.377698,100.88426 L 43.59535,99.993055 a 10.04979,10.04979 0 0 1 -8.983729,5.557915 10.04979,10.04979 0 0 1 -10.049788,-10.049775 10.04979,10.04979 0 0 1 10.049788,-10.049792 10.04979,10.04979 0 0 1 8.700528,5.02654 l 1.740734,-1.00498 a 12.059748,12.059748 0 0 0 -10.441262,-6.03152 z" />
    <path
       id="path104-7"
       style="display:inline;fill:#ffffff;fill-opacity:1;stroke:#fcffff;stroke-width:1.05833;stroke-linecap:square;stroke-linejoin:miter;stroke-dasharray:none;stroke-opacity:1"
       d="m 131.51844,150.89367 a 12.059748,12.059748 0 0 0 -12.05975,12.05975 12.059748,12.059748 0 0 0 12.05975,12.05974 12.059748,12.059748 0 0 0 10.76608,-6.67667 l -1.78235,-0.89121 a 10.04979,10.04979 0 0 1 -8.98373,5.55793 10.04979,10.04979 0 0 1 -10.04979,-10.04979 10.04979,10.04979 0 0 1 10.04979,-10.04979 10.04979,10.04979 0 0 1 8.70053,5.02654 l 1.74073,-1.00497 a 12.059748,12.059748 0 0 0 -10.44126,-6.03153 z" />
    <path
       id="path104-1"
       style="display:inline;fill:#ffffff;fill-opacity:1;stroke:#fcffff;stroke-width:1.05833;stroke-linecap:square;stroke-linejoin:miter;stroke-dasharray:none;stroke-opacity:1"
       d="m 34.611621,150.89367 a 12.059748,12.059748 0 0 0 -12.059748,12.05975 12.059748,12.059748 0 0 0 12.059748,12.05974 12.059748,12.059748 0 0 0 10.766077,-6.67667 l -1.782348,-0.89121 a 10.04979,10.04979 0 0 1 -8.983729,5.55793 10.04979,10.04979 0 0 1 -10.049788,-10.04979 10.04979,10.04979 0 0 1 10.049788,-10.04979 10.04979,10.04979 0 0 1 8.700528,5.02654 l 1.740734,-1.00497 a 12.059748,12.059748 0 0 0 -10.441262,-6.03153 z" />
    <path
       id="rect107"
       style="display:inline;fill:#ffffff;fill-opacity:1;stroke:#fcffff;stroke-width:1.05833;stroke-linecap:square;stroke-linejoin:miter;stroke-dasharray:none;stroke-opacity:1"
       d="m 61.745882,83.441443 -1.087811,2.62606 v 8e-5 l -0.496917,1.19961 -0.368155,0.88886 -0.657948,1.58834 -0.430725,1.03992 -0.236562,0.57103 -1.717263,4.145772 -0.83248,2.00996 -0.344282,0.83115 -2.912083,7.030295 -0.145957,0.35237 -0.100891,0.24363 -0.0713,0.17202 -0.588299,1.42032 h 2.175542 l 0.441874,-1.06685 3.720934,-8.982935 h 7.304551 l 4.162814,10.049785 h 2.175543 l -0.588305,-1.42032 -0.07129,-0.17202 -0.10089,-0.24363 -0.145957,-0.35237 -2.912085,-7.030295 -0.344283,-0.83115 -0.832484,-2.00996 -1.717256,-4.145772 -0.236568,-0.57103 -0.430725,-1.03992 -1.026097,-2.4772 -0.496917,-1.19961 v -8e-5 z m -8.6e-5,5.25227 8.6e-5,8e-5 2.819752,6.807322 h -8.5e-5 -5.639427 -7.9e-5 z" />
    <path
       id="rect107-2"
       style="display:inline;fill:#ffffff;fill-opacity:1;stroke:#fcffff;stroke-width:1.05833;stroke-linecap:square;stroke-linejoin:miter;stroke-dasharray:none;stroke-opacity:1"
       d="m 199.48015,83.441443 -1.08782,2.62606 v 8e-5 l -0.49692,1.19961 -0.36815,0.88886 -0.65795,1.58834 -0.43073,1.03992 -0.23656,0.57103 -1.71726,4.145772 -0.83248,2.00996 -0.34428,0.83115 -2.91209,7.030295 -0.14596,0.35237 -0.10089,0.24363 -0.0713,0.17202 -0.5883,1.42032 h 2.17554 l 0.44187,-1.06685 3.72093,-8.982935 h 7.30456 l 4.16279,10.049785 h 2.17556 l -0.58833,-1.42032 -0.0713,-0.17202 -0.10086,-0.24363 -0.14596,-0.35237 -2.91209,-7.030295 -0.34429,-0.83115 -0.83247,-2.00996 -1.71726,-4.145772 -0.23656,-0.57104 -0.43074,-1.03991 -1.02609,-2.4772 -0.49692,-1.19961 v -8e-5 z m -1e-4,5.25227 1e-4,8e-5 2.81973,6.807322 h -7e-5 -5.63942 -1e-4 z" />
    <path
       id="rect107-2-4"
       style="display:inline;fill:#ffffff;fill-opacity:1;stroke:#fcffff;stroke-width:1.05833;stroke-linecap:square;stroke-linejoin:miter;stroke-dasharray:none;stroke-opacity:1"
       d="m 32.542542,117.1676 -1.087811,2.62605 v 8e-5 l -0.496917,1.19962 -0.368149,0.88886 -0.657948,1.58833 -0.430731,1.03992 -0.236562,0.57103 -1.717256,4.14578 -0.832487,2.00996 -0.344282,0.83115 -2.912083,7.0303 -0.145957,0.35236 -0.100891,0.24363 -0.07129,0.17203 -0.588305,1.42031 h 2.175542 l 0.441881,-1.06685 3.720934,-8.98293 h 7.304544 l 4.162815,10.04978 h 2.175542 l -0.588305,-1.42031 -0.07129,-0.17203 -0.100891,-0.24363 -0.14595,-0.35236 -2.91209,-7.0303 -0.344282,-0.83115 -0.832487,-2.00996 -1.717256,-4.14578 -0.236562,-0.57103 -0.430725,-1.03992 -1.026103,-2.47719 -0.49691,-1.19962 v -8e-5 z m -7.9e-5,5.25227 7.9e-5,8e-5 2.819752,6.80732 h -7.9e-5 -5.639426 -7.9e-5 z" />
    <path
       id="path7-5"
       style="display:inline;fill:#ffffff;fill-opacity:1;stroke:#fcffff;stroke-width:1.05833;stroke-linecap:square;stroke-linejoin:miter;stroke-dasharray:none;stroke-opacity:1"
       d="m 112.43475,117.16752 v 2.00996 9.04481 2.00995 11.05477 h 2.00995 v -10.2222 l 3.55315,3.55315 3.55316,3.55315 3.1159,3.1159 h 2.84252 l -4.53716,-4.53716 -3.55316,-3.55316 -2.96445,-2.96445 h 2.51245 a 6.5323637,6.5323637 0 0 0 6.53236,-6.53236 6.5323637,6.5323637 0 0 0 -6.53236,-6.53236 h -4.52241 z m 2.00995,2.00996 h 4.52241 a 4.5224057,4.5224057 0 0 1 4.52241,4.5224 4.5224057,4.5224057 0 0 1 -4.52241,4.52241 h -4.52241 z" />
    <path
       id="rect4"
       style="display:inline;fill:#ffffff;fill-opacity:1;stroke:#fcffff;stroke-width:1.05833;stroke-linecap:square;stroke-linejoin:miter;stroke-dasharray:none;stroke-opacity:1"
       d="m 78.114001,83.441363 v 24.119497 h 2.00996 V 87.461273 l 2.108495,3.65201 8.210598,14.221147 1.285433,2.22643 h 2.009957 v -0.53853 -13.034187 -10.54678 h -2.009957 v 20.099657 l -7.755375,-13.432717 -3.849151,-6.66694 z" />
    <path
       id="rect4-5"
       style="display:inline;fill:#ffffff;fill-opacity:1;stroke:#fcffff;stroke-width:1.05833;stroke-linecap:square;stroke-linejoin:miter;stroke-dasharray:none;stroke-opacity:1"
       d="m 149.05024,83.441363 v 24.119497 h 2.00996 V 87.461273 l 2.1085,3.65201 8.21059,14.221147 1.28544,2.22643 h 2.00996 v -0.53853 -13.034187 -10.54678 h -2.00996 v 20.099647 l -7.75537,-13.432717 -3.84916,-6.66693 z" />
    <path
       id="rect114-5"
       style="display:inline;fill:#ffffff;fill-opacity:1;stroke:#fcffff;stroke-width:1.05833;stroke-linecap:square;stroke-linejoin:miter;stroke-dasharray:none;stroke-opacity:1"
       d="m 100.11596,83.441363 v 2.00995 h 5.0249 v 20.099587 2.00996 h 2.00996 V 105.5509 85.451313 h 5.02489 v -2.00995 z" />
    <path
       id="rect114-5-2"
       style="display:inline;fill:#ffffff;fill-opacity:1;stroke:#fcffff;stroke-width:1.05833;stroke-linecap:square;stroke-linejoin:miter;stroke-dasharray:none;stroke-opacity:1"
       d="m 145.04096,150.89367 v 2.00996 h 5.02489 v 20.09958 2.00995 h 2.00996 v -2.00995 -20.09958 h 5.0249 v -2.00996 z" />
    <path
       id="rect114-5-2-3"
       style="display:inline;fill:#ffffff;fill-opacity:1;stroke:#fcffff;stroke-width:1.05833;stroke-linecap:square;stroke-linejoin:miter;stroke-dasharray:none;stroke-opacity:1"
       d="m 55.716179,183.05298 v 2.00996 h 5.024897 v 20.09958 2.00996 h 2.00996 v -2.00996 -20.09958 h 5.0249 v -2.00996 z" />
    <path
       id="rect114-5-8"
       style="display:inline;fill:#ffffff;fill-opacity:1;stroke:#fcffff;stroke-width:1.05833;stroke-linecap:square;stroke-linejoin:miter;stroke-dasharray:none;stroke-opacity:1"
       d="m 197.41103,117.16752 v 2.00995 h 5.02489 v 20.09958 2.00996 h 2.00997 v -2.00996 -20.09958 h 5.02489 v -2.00995 z" />
    <path
       id="path2"
       style="display:inline;fill:#ffffff;fill-opacity:1;stroke:#fcffff;stroke-width:1.05833;stroke-linecap:square;stroke-linejoin:miter;stroke-dasharray:none;stroke-opacity:1"
       d="m 130.61298,83.441363 a 12.059748,12.059748 0 0 0 -12.05975,12.059752 12.059748,12.059748 0 0 0 12.05975,12.059745 12.059748,12.059748 0 0 0 12.05975,-12.059745 12.059748,12.059748 0 0 0 -12.05975,-12.059752 z m 0,2.00995 A 10.04979,10.04979 0 0 1 140.66277,95.501115 10.04979,10.04979 0 0 1 130.61298,105.5509 10.04979,10.04979 0 0 1 120.56319,95.501115 10.04979,10.04979 0 0 1 130.61298,85.451313 Z" />
    <path
       id="path2-0"
       style="display:inline;fill:#ffffff;fill-opacity:1;stroke:#fcffff;stroke-width:1.05833;stroke-linecap:square;stroke-linejoin:miter;stroke-dasharray:none;stroke-opacity:1"
       d="M 60.193878,150.89367 A 12.059748,12.059748 0 0 0 48.13413,162.95342 12.059748,12.059748 0 0 0 60.193878,175.01316 12.059748,12.059748 0 0 0 72.253626,162.95342 12.059748,12.059748 0 0 0 60.193878,150.89367 Z m 0,2.00996 a 10.04979,10.04979 0 0 1 10.049789,10.04979 10.04979,10.04979 0 0 1 -10.049789,10.04979 10.04979,10.04979 0 0 1 -10.049787,-10.04979 10.04979,10.04979 0 0 1 10.049787,-10.04979 z" />
    <path
       id="path2-0-9"
       style="display:inline;fill:#ffffff;fill-opacity:1;stroke:#fcffff;stroke-width:1.05833;stroke-linecap:square;stroke-linejoin:miter;stroke-dasharray:none;stroke-opacity:1"
       d="m 167.71687,183.05298 a 12.059748,12.059748 0 0 0 -12.05974,12.05975 12.059748,12.059748 0 0 0 12.05974,12.05975 12.059748,12.059748 0 0 0 12.05975,-12.05975 12.059748,12.059748 0 0 0 -12.05975,-12.05975 z m 0,2.00996 a 10.04979,10.04979 0 0 1 10.04979,10.04979 10.04979,10.04979 0 0 1 -10.04979,10.04979 10.04979,10.04979 0 0 1 -10.04979,-10.04979 10.04979,10.04979 0 0 1 10.04979,-10.04979 z" />
    <path
       id="rect114"
       style="display:inline;fill:#ffffff;fill-opacity:1;stroke:#fcffff;stroke-width:1.05833;stroke-linecap:square;stroke-linejoin:miter;stroke-dasharray:none;stroke-opacity:1"
       d="m 171.05221,83.441363 v 2.00995 h 5.02489 V 105.5509 h -5.02489 v 2.00996 h 5.02489 2.00995 5.02491 v -2.00996 h -5.02491 V 85.451313 h 5.02491 v -2.00995 z" />
    <path
       id="rect114-6"
       style="display:inline;fill:#ffffff;fill-opacity:1;stroke:#fcffff;stroke-width:1.05833;stroke-linecap:square;stroke-linejoin:miter;stroke-dasharray:none;stroke-opacity:1"
       d="m 159.85716,150.89367 v 2.00996 h 5.0249 v 20.09958 h -5.0249 v 2.00996 h 5.0249 2.00995 5.0249 v -2.00996 h -5.0249 v -20.09958 h 5.0249 v -2.00996 z" />
    <path
       id="rect107-6"
       style="display:inline;fill:#ffffff;fill-opacity:1;stroke:#fcffff;stroke-width:1.05833;stroke-linecap:square;stroke-linejoin:miter;stroke-dasharray:none;stroke-opacity:1"
       d="m 174.67337,150.89367 0.5883,1.42032 0.0713,0.17202 0.1009,0.24363 0.14595,0.35237 2.91209,7.0303 0.34428,0.83115 0.83248,2.00996 1.71726,4.14577 0.23657,0.57104 0.43072,1.03992 0.65795,1.58833 0.36816,0.88885 0.49691,1.19963 v 7e-5 l 1.08781,2.62606 1.08773,-2.62606 v -7e-5 l 0.49692,-1.19963 1.02609,-2.47718 0.43073,-1.03992 0.23657,-0.57104 1.71726,-4.14577 0.83248,-2.00996 0.34428,-0.83115 2.91208,-7.0303 0.14595,-0.35237 0.1009,-0.24363 0.0713,-0.17202 0.5883,-1.42032 h -2.17554 l -4.1628,10.04979 -0.8325,2.00996 -2.81974,6.80732 -9e-5,8e-5 -2.81974,-6.8074 h 8e-5 l -0.83256,-2.00996 -3.72094,-8.98294 -0.44188,-1.06685 z" />
    <path
       id="rect79"
       style="display:inline;fill:#ffffff;fill-opacity:1;stroke:#fcffff;stroke-width:1.05833;stroke-linecap:square;stroke-linejoin:miter;stroke-dasharray:none;stroke-opacity:1"
       d="m 71.795847,204.15754 h 3.014938 v 3.01494 h -3.014938 z" />
    <path
       id="path10"
       style="display:inline;fill:#ffffff;fill-opacity:1;stroke:#fcffff;stroke-width:1.05833;stroke-linecap:square;stroke-linejoin:miter;stroke-dasharray:none;stroke-opacity:1"
       d="m 147.61729,183.05298 a 6.0298743,6.0298743 0 0 0 -6.02987,6.02988 h 2.00996 a 4.0199161,4.0199161 0 0 1 4.01991,-4.01992 4.0199161,4.0199161 0 0 1 3.98938,3.53423 l -3.76177,6.51556 -1.96826,3.40915 -3.834,6.64064 h -0.45522 v 2.00996 h 12.05975 v -2.00996 h -9.28365 l 3.25377,-5.63565 1.96827,-3.40916 4.06161,-7.03485 a 6.0298743,6.0298743 0 0 0 -6.02988,-6.02988 z" />
    <path
       id="path10-8"
       style="display:inline;fill:#ffffff;fill-opacity:1;stroke:#fcffff;stroke-width:1.05833;stroke-linecap:square;stroke-linejoin:miter;stroke-dasharray:none;stroke-opacity:1"
       d="m 187.81646,183.05298 a 6.0298743,6.0298743 0 0 0 -6.02988,6.02988 h 2.00996 a 4.0199161,4.0199161 0 0 1 4.01992,-4.01992 4.0199161,4.0199161 0 0 1 3.98937,3.53423 l -3.76176,6.51556 -1.96828,3.40915 -3.83398,6.64064 h -0.45523 v 2.00996 h 12.05975 v -2.00996 h -9.28365 l 3.25378,-5.63565 1.96826,-3.40916 4.06161,-7.03485 a 6.0298743,6.0298743 0 0 0 -6.02987,-6.02988 z" />
    <path
       id="path10-9"
       style="display:inline;fill:#ffffff;fill-opacity:1;stroke:#fcffff;stroke-width:1.05833;stroke-linecap:square;stroke-linejoin:miter;stroke-dasharray:none;stroke-opacity:1"
       d="m 203.44089,183.05298 a 6.0298743,6.0298743 0 0 0 -6.02986,6.02988 h 2.00995 a 4.0199161,4.0199161 0 0 1 4.01991,-4.01992 4.0199161,4.0199161 0 0 1 3.98939,3.53423 l -3.76177,6.51556 -1.96826,3.40915 -3.834,6.64064 h -0.45522 v 2.00996 h 12.05974 v -2.00996 h -9.28365 l 3.25377,-5.63565 1.96828,-3.40916 4.0616,-7.03485 a 6.0298743,6.0298743 0 0 0 -6.02988,-6.02988 z" />
  </g>
</svg>
